<?xml version="1.0" standalone="no"?>
<!DOCTYPE svg PUBLIC "-//W3C//DTD SVG 20010904//EN"
 "http://www.w3.org/TR/2001/REC-SVG-20010904/DTD/svg10.dtd">
<svg version="1.0" xmlns="http://www.w3.org/2000/svg"
 width="244.000000pt" height="206.000000pt" viewBox="0 0 244.000000 206.000000"
 preserveAspectRatio="xMidYMid meet">

<g transform="translate(0.000000,206.000000) scale(0.100000,-0.100000)"
fill="#000000" stroke="none">
<path d="M2330 2038 c-19 -5 -539 -151 -1155 -324 -616 -173 -1128 -317 -1138
-320 -25 -8 -40 -40 -28 -63 6 -10 121 -123 256 -251 l245 -233 0 -408 c0
-516 -15 -493 197 -302 59 54 147 133 195 177 l88 78 200 -192 c172 -163 205
-191 228 -188 25 3 61 71 525 997 440 877 497 997 488 1018 -12 25 -40 29
-101 11z m-495 -1037 l-436 -872 -124 118 c-68 65 -241 228 -384 363 -142 135
-260 247 -260 250 0 3 330 210 735 460 405 250 773 478 818 506 44 28 82 50
84 48 2 -1 -193 -394 -433 -873z m230 860 c-6 -5 -347 -217 -758 -471 l-748
-462 -146 139 c-80 76 -175 165 -211 199 l-66 60 240 68 c131 37 563 158 959
270 396 112 724 204 730 205 6 1 6 -2 0 -8z m-1167 -1426 c-20 -20 -216 -196
-275 -249 l-23 -19 0 297 0 298 160 -153 161 -153 -23 -21z"/>
</g>
</svg>
