<?xml version="1.0" encoding="iso-8859-1"?>
<!-- Uploaded to: SVG Repo, www.svgrepo.com, Generator: SVG Repo Mixer Tools -->
<!DOCTYPE svg PUBLIC "-//W3C//DTD SVG 1.1//EN" "http://www.w3.org/Graphics/SVG/1.1/DTD/svg11.dtd">
<svg fill="#000000" version="1.1" id="Capa_1" xmlns="http://www.w3.org/2000/svg" xmlns:xlink="http://www.w3.org/1999/xlink" 
	 width="800px" height="800px" viewBox="0 0 410.859 410.859"
	 xml:space="preserve">
<g>
	<g>
		<path d="M350.738,60.172C311.935,21.367,260.349,0,205.479,0C150.606,0,99.017,21.367,60.217,60.172
			C21.417,98.969,0.049,150.559,0.049,205.43c-0.004,54.871,21.364,106.461,60.168,145.258
			c38.804,38.805,90.39,60.172,145.262,60.172c54.871,0,106.46-21.367,145.26-60.172
			C430.835,270.594,430.835,140.266,350.738,60.172z M329.567,329.516c-33.146,33.146-77.216,51.402-124.089,51.402
			c-46.871,0-90.941-18.258-124.091-51.402c-33.146-33.145-51.399-77.211-51.396-124.086c0-46.875,18.254-90.94,51.396-124.085
			c33.146-33.145,77.216-51.398,124.091-51.398c46.87,0,90.941,18.254,124.089,51.398
			C397.985,149.77,397.985,261.09,329.567,329.516z"/>
		<path d="M290.731,99.606c0,0-116.666,69.603-119.72,73.024c-3.521,3.943-71.402,118.12-71.402,118.12
			c-3.546,5.891-2.621,13.445,2.244,18.305c2.888,2.887,6.718,4.387,10.589,4.387c2.653,0,5.322-0.703,7.716-2.141
			c0,0,113.791-67.553,117.945-71.072c4.988-4.225,73.204-120.052,73.204-120.052c3.593-5.891,2.688-13.488-2.201-18.371
			C304.223,96.922,296.635,96.024,290.731,99.606z M216.402,218.422l-60.087,36.164l36.15-60.07l61.206-37.285L216.402,218.422z"/>
	</g>
</g>
</svg>