<?xml version="1.0" standalone="no"?>
<!DOCTYPE svg PUBLIC "-//W3C//DTD SVG 20010904//EN"
 "http://www.w3.org/TR/2001/REC-SVG-20010904/DTD/svg10.dtd">
<svg version="1.0" xmlns="http://www.w3.org/2000/svg"
 width="767.000000pt" height="717.000000pt" viewBox="0 0 767.000000 717.000000"
 preserveAspectRatio="xMidYMid meet">

<g transform="translate(0.000000,717.000000) scale(0.100000,-0.100000)"
fill="#000000" stroke="none">
<path d="M2910 6520 c-301 -24 -593 -149 -851 -363 -171 -142 -353 -412 -433
-642 -49 -144 -55 -168 -71 -295 -18 -141 -18 -241 -1 -390 37 -308 157 -572
372 -820 135 -157 273 -260 479 -360 133 -65 199 -87 361 -122 156 -33 411
-33 569 0 383 81 697 279 926 582 157 209 245 425 290 712 30 195 -10 532 -86
723 -151 380 -402 655 -760 833 -232 116 -510 165 -795 142z m345 -312 c39 -5
113 -24 165 -40 182 -58 323 -143 468 -282 185 -179 291 -366 348 -613 23
-101 26 -140 26 -273 0 -138 -3 -167 -30 -270 -34 -134 -107 -296 -181 -402
-60 -87 -187 -218 -279 -288 -133 -100 -332 -185 -517 -220 -97 -19 -320 -16
-427 4 -437 85 -788 394 -927 816 -180 550 53 1144 561 1431 241 135 503 181
793 137z"/>
<path d="M5645 2704 c-44 -22 -1344 -1323 -1361 -1361 -17 -39 -18 -96 -3
-126 6 -12 270 -282 588 -599 l576 -578 197 0 c151 0 198 3 198 12 0 7 -235
248 -522 535 -287 287 -518 526 -514 530 4 4 584 10 1289 13 1262 5 1282 5
1309 25 40 30 58 68 58 120 0 57 -25 102 -72 130 -32 20 -53 20 -1298 23 -696
1 -1272 5 -1280 8 -9 3 156 176 502 522 284 284 524 532 533 551 21 43 16 117
-11 154 -40 53 -128 73 -189 41z"/>
<path d="M2800 2579 c-58 -4 -127 -12 -155 -18 -27 -6 -97 -20 -155 -32 -275
-54 -606 -191 -875 -362 -438 -280 -802 -706 -1010 -1182 -57 -132 -69 -164
-116 -325 -70 -238 -115 -518 -92 -585 l10 -30 131 -3 c155 -3 146 -11 157
129 12 158 73 431 120 544 7 17 28 66 46 110 116 284 323 583 560 810 162 156
369 300 576 404 79 39 145 71 149 71 3 0 20 7 37 15 41 19 187 69 257 88 424
116 930 101 1340 -39 77 -26 161 -48 195 -50 56 -5 63 -3 97 26 59 49 72 134
30 198 -22 34 -84 66 -207 106 -170 56 -173 56 -430 106 -140 27 -443 36 -665
19z"/>
</g>
</svg>
