<?xml version="1.0" standalone="no"?>
<!DOCTYPE svg PUBLIC "-//W3C//DTD SVG 20010904//EN"
 "http://www.w3.org/TR/2001/REC-SVG-20010904/DTD/svg10.dtd">
<svg version="1.0" xmlns="http://www.w3.org/2000/svg"
 width="797.000000pt" height="717.000000pt" viewBox="0 0 797.000000 717.000000"
 preserveAspectRatio="xMidYMid meet">

<g transform="translate(0.000000,717.000000) scale(0.100000,-0.100000)"
fill="#000000" stroke="none">
<path d="M2565 5823 c-131 -16 -281 -59 -410 -118 -280 -127 -551 -441 -649
-750 -51 -161 -51 -162 -51 -385 0 -225 5 -263 57 -415 26 -77 107 -231 169
-320 160 -231 408 -406 679 -478 134 -36 189 -42 355 -42 121 1 192 6 245 18
301 66 544 210 716 422 185 229 299 531 297 785 -1 91 -20 245 -38 308 -8 28
-21 73 -29 100 -68 239 -268 508 -501 673 -125 89 -322 165 -497 194 -84 13
-266 18 -343 8z m337 -308 c305 -64 534 -246 682 -541 65 -131 88 -235 87
-406 0 -172 -26 -291 -91 -420 -103 -202 -249 -349 -441 -444 -76 -38 -83 -40
-209 -76 -95 -27 -342 -30 -430 -5 -228 63 -341 127 -485 278 -173 181 -258
377 -272 629 -9 169 21 310 98 462 37 73 54 99 134 197 136 167 320 279 535
325 89 20 301 20 392 1z"/>
<path d="M5695 4709 c-75 -8 -174 -29 -220 -48 -309 -126 -514 -327 -622 -610
-81 -211 -85 -469 -11 -686 46 -137 140 -295 220 -371 173 -166 353 -262 581
-313 61 -14 263 -14 324 0 288 64 534 221 668 424 130 197 185 369 185 581 0
398 -218 748 -579 929 -38 19 -76 35 -83 35 -8 0 -18 4 -23 8 -16 14 -133 41
-225 52 -93 11 -100 11 -215 -1z m300 -316 c171 -43 339 -170 433 -328 128
-218 134 -488 15 -717 -81 -155 -272 -309 -433 -348 -140 -35 -298 -36 -402
-4 -222 68 -398 228 -474 430 -27 73 -54 213 -54 285 0 111 50 274 117 378 86
134 261 264 408 303 112 29 274 30 390 1z"/>
<path d="M2525 2600 c-16 -4 -50 -8 -75 -9 -122 -3 -438 -90 -607 -167 -313
-142 -460 -241 -684 -464 -236 -234 -398 -482 -517 -790 -82 -211 -129 -404
-139 -566 -4 -67 -1 -87 15 -115 40 -73 126 -99 202 -61 51 25 76 78 84 178 3
46 10 103 16 127 5 23 13 62 19 87 28 136 92 303 184 478 136 262 385 534 637
698 126 81 354 192 465 226 154 46 238 62 410 79 182 18 495 -3 630 -41 246
-69 416 -146 615 -277 264 -175 517 -465 649 -747 53 -113 114 -279 131 -359
40 -187 49 -237 50 -270 0 -53 27 -131 53 -155 54 -49 142 -51 197 -5 49 40
63 86 51 158 -6 33 -15 89 -20 125 -19 123 -38 201 -84 340 -74 224 -145 368
-282 580 -110 169 -391 453 -557 563 -187 124 -460 254 -623 297 -16 4 -64 17
-105 28 -41 11 -118 28 -170 37 -52 9 -114 20 -138 25 -49 12 -363 11 -407 0z"/>
<path d="M5590 2179 c-203 -29 -323 -59 -425 -104 -137 -60 -165 -77 -190
-109 -51 -67 -31 -163 45 -211 54 -34 84 -32 182 13 106 49 129 57 208 77 36
9 83 21 105 27 109 29 488 25 609 -6 232 -61 402 -141 573 -271 300 -228 528
-633 568 -1010 9 -86 31 -126 85 -153 76 -39 145 -18 198 59 25 36 26 66 3
199 -35 202 -61 285 -155 481 -120 253 -275 455 -471 614 -232 187 -481 313
-730 368 -214 48 -401 56 -605 26z"/>
</g>
</svg>
