<?xml version="1.0" standalone="no"?>
<!DOCTYPE svg PUBLIC "-//W3C//DTD SVG 20010904//EN"
 "http://www.w3.org/TR/2001/REC-SVG-20010904/DTD/svg10.dtd">
<svg version="1.0" xmlns="http://www.w3.org/2000/svg"
 width="500.000000pt" height="500.000000pt" viewBox="0 0 500.000000 500.000000"
 preserveAspectRatio="xMidYMid meet">

<g transform="translate(0.000000,500.000000) scale(0.100000,-0.100000)"
fill="#000000" stroke="none">
<path d="M1060 4021 c-81 -25 -161 -86 -206 -158 -66 -103 -65 -74 -62 -1069
l3 -899 23 -57 c33 -81 108 -160 190 -200 l66 -33 243 -3 243 -4 0 -309 c0
-170 3 -309 8 -308 4 0 45 43 92 94 47 52 88 94 92 94 4 1 9 -42 10 -94 l3
-95 288 310 289 310 842 0 c565 0 862 4 901 11 121 22 217 95 271 205 l29 59
0 940 0 940 -32 66 c-39 79 -102 140 -181 177 l-57 27 -1515 2 c-833 1 -1526
-2 -1540 -6z m596 -976 c104 -31 164 -113 164 -225 0 -114 -60 -195 -169 -226
-219 -64 -392 202 -245 375 68 79 153 105 250 76z m913 0 c63 -22 98 -51 131
-108 25 -43 30 -63 30 -117 -1 -248 -327 -329 -442 -110 -99 188 83 405 281
335z"/>
</g>
</svg>
