<?xml version="1.0" standalone="no"?>
<!DOCTYPE svg PUBLIC "-//W3C//DTD SVG 20010904//EN"
 "http://www.w3.org/TR/2001/REC-SVG-20010904/DTD/svg10.dtd">
<svg version="1.0" xmlns="http://www.w3.org/2000/svg"
 width="499.000000pt" height="500.000000pt" viewBox="0 0 499.000000 500.000000"
 preserveAspectRatio="xMidYMid meet">

<g transform="translate(0.000000,500.000000) scale(0.100000,-0.100000)"
fill="#000000" stroke="none">
<path d="M1555 3746 c-177 -35 -346 -170 -426 -341 -60 -127 -60 -128 -57
-767 3 -576 4 -584 26 -645 70 -194 217 -339 403 -398 l80 -25 1043 0 1044 0
85 25 c246 71 407 259 447 521 7 47 10 252 8 595 -4 568 -5 572 -63 694 -72
151 -228 285 -381 327 -67 19 -423 26 -1299 26 -619 0 -866 -3 -910 -12z
m1013 -743 l2 -223 203 0 c145 0 206 -3 215 -12 16 -16 16 -90 0 -106 -9 -9
-70 -12 -215 -12 l-203 0 0 -203 c0 -145 -3 -206 -12 -215 -7 -7 -26 -12 -44
-12 -67 0 -64 -9 -64 221 l0 209 -218 0 c-156 0 -221 3 -230 12 -7 7 -12 30
-12 53 0 23 5 46 12 53 9 9 74 12 230 12 l218 0 0 225 0 226 58 -3 57 -3 3
-222z"/>
</g>
</svg>
