<?xml version="1.0" encoding="UTF-8"?>
<svg version="1.1" xmlns="http://www.w3.org/2000/svg" width="89" height="71">
<path d="M0 0 C0 0.66 0 1.32 0 2 C0.598125 2.2475 1.19625 2.495 1.8125 2.75 C7.69265646 6.1100894 11.03484467 14.25826281 13.30859375 20.39453125 C15.74830337 29.58823924 13.7301205 37.9442213 9.3125 46.125 C1.54225476 55.78530489 -6.739081 60.1326242 -18.921875 61.76171875 C-22.53832111 62.04167207 -25.48093603 61.81838697 -29 61 C-29 60.34 -29 59.68 -29 59 C-29.99 58.79375 -30.98 58.5875 -32 58.375 C-40.6159314 55.82148807 -45.12760452 49.94018663 -49.65234375 42.48828125 C-53.45031752 35.47579055 -53.13199657 25.23650213 -51.45703125 17.48828125 C-47.7079203 9.09238489 -39.46103797 0.53825224 -31 -3 C-19.81732603 -6.42081798 -10.55816631 -4.5752054 0 0 Z " fill="#F0F0F1" transform="translate(61,6)"/>
<path d="M0 0 C0.89460938 -0.00128906 1.78921875 -0.00257812 2.7109375 -0.00390625 C3.65195312 -0.00003906 4.59296875 0.00382812 5.5625 0.0078125 C6.97402344 0.00201172 6.97402344 0.00201172 8.4140625 -0.00390625 C9.75597656 -0.00197266 9.75597656 -0.00197266 11.125 0 C11.95128906 0.00112793 12.77757813 0.00225586 13.62890625 0.00341797 C15.5625 0.1328125 15.5625 0.1328125 16.5625 1.1328125 C16.64963831 2.84053608 16.66950007 4.55179899 16.66015625 6.26171875 C16.65693359 7.29619141 16.65371094 8.33066406 16.65039062 9.39648438 C16.64201172 10.48509766 16.63363281 11.57371094 16.625 12.6953125 C16.62048828 13.78779297 16.61597656 14.88027344 16.61132812 16.00585938 C16.59949826 18.71489745 16.58301543 21.42382849 16.5625 24.1328125 C15.2425 24.1328125 13.9225 24.1328125 12.5625 24.1328125 C12.5625 23.4728125 12.5625 22.8128125 12.5625 22.1328125 C11.5725 22.1328125 10.5825 22.1328125 9.5625 22.1328125 C9.5625 21.4728125 9.5625 20.8128125 9.5625 20.1328125 C4.85211897 20.58573375 2.23836901 21.21746811 -1.4375 24.1328125 C-2.7575 24.1328125 -4.0775 24.1328125 -5.4375 24.1328125 C-5.46637236 20.32032824 -5.48425492 16.5078718 -5.5 12.6953125 C-5.50837891 11.60669922 -5.51675781 10.51808594 -5.52539062 9.39648438 C-5.52861328 8.36201172 -5.53183594 7.32753906 -5.53515625 6.26171875 C-5.54039307 5.30338135 -5.54562988 4.34504395 -5.55102539 3.35766602 C-5.3478483 -0.62416806 -3.51352283 0.00479615 0 0 Z " fill="#1B1C27" transform="translate(36.4375,21.8671875)"/>
<path d="M0 0 C-2.55068845 2.35448165 -3.71017358 2.98327924 -7.25 3.1875 C-8.1575 3.125625 -9.065 3.06375 -10 3 C-6.46873184 -0.69178035 -5.02635024 -1.19045137 0 0 Z " fill="#E0E2E5" transform="translate(46,42)"/>
<path d="" fill="#FFFFFF" transform="translate(0,0)"/>
<path d="" fill="#FFFFFF" transform="translate(0,0)"/>
<path d="" fill="#FFFFFF" transform="translate(0,0)"/>
<path d="" fill="#FFFFFF" transform="translate(0,0)"/>
<path d="" fill="#FFFFFF" transform="translate(0,0)"/>
<path d="" fill="#FFFFFF" transform="translate(0,0)"/>
<path d="" fill="#FFFFFF" transform="translate(0,0)"/>
<path d="" fill="#FFFFFF" transform="translate(0,0)"/>
<path d="" fill="#FF00FF" transform="translate(0,0)"/>
<path d="" fill="#FFFFFF" transform="translate(0,0)"/>
<path d="" fill="#FFFFFF" transform="translate(0,0)"/>
<path d="" fill="#FFFFFF" transform="translate(0,0)"/>
<path d="" fill="#FFFFFF" transform="translate(0,0)"/>
<path d="" fill="#FFFFFF" transform="translate(0,0)"/>
<path d="" fill="#FFFFFF" transform="translate(0,0)"/>
<path d="" fill="#FFFFFF" transform="translate(0,0)"/>
<path d="" fill="#FFFFFF" transform="translate(0,0)"/>
<path d="" fill="#FFFFFF" transform="translate(0,0)"/>
<path d="" fill="#FFFFFF" transform="translate(0,0)"/>
<path d="" fill="#FFFFFF" transform="translate(0,0)"/>
<path d="" fill="#FFFEFF" transform="translate(0,0)"/>
<path d="" fill="#FFFFFF" transform="translate(0,0)"/>
<path d="" fill="#FFFFFF" transform="translate(0,0)"/>
</svg>
