<?xml version="1.0" encoding="UTF-8"?>
<svg version="1.1" xmlns="http://www.w3.org/2000/svg" width="88" height="73">
<path d="M0 0 C7.91782104 4.87893902 12.88751068 13.35548418 15.671875 22.11328125 C17.28431634 31.38481893 15.38391251 40.17490721 10.66796875 48.29296875 C5.21922305 55.42461819 -5.35669755 60.82193723 -14.13671875 62.37890625 C-24.26156578 63.10764715 -33.80806047 58.33891945 -41.47265625 51.93359375 C-48.33786813 44.48534902 -50.33506018 36.22036661 -50.203125 26.28125 C-49.58399295 16.27988616 -43.30826367 8.77617007 -36.125 2.125 C-24.71701738 -5.63242818 -12.31920413 -6.34971324 0 0 Z " fill="#F0F0F0" transform="translate(61,4)"/>
<path d="M0 0 C3.83797544 1.56361962 6.1667627 4.02510083 9 7 C9.763125 7.763125 10.52625 8.52625 11.3125 9.3125 C11.869375 9.869375 12.42625 10.42625 13 11 C11.50198648 14.61477175 9.42462583 16.68620463 6.5 19.25 C5.7059375 19.95640625 4.911875 20.6628125 4.09375 21.390625 C2 23 2 23 0 23 C0 21.35 0 19.7 0 18 C-1.58367747 18.14204741 -3.16693318 18.28880153 -4.75 18.4375 C-5.63171875 18.51871094 -6.5134375 18.59992187 -7.421875 18.68359375 C-10.77652896 19.07331695 -10.77652896 19.07331695 -14 20 C-14.33 20.99 -14.66 21.98 -15 23 C-15.66 23 -16.32 23 -17 23 C-16.59754037 17.16433541 -15.87546456 13.62902712 -12 9 C-8.29277083 6.07324013 -5.67259219 5.6740052 -1 6 C-1.020625 5.195625 -1.04125 4.39125 -1.0625 3.5625 C-1 1 -1 1 0 0 Z " fill="#1A1C25" transform="translate(46,21)"/>
<path d="M0 0 C3.875 1.75 3.875 1.75 5 4 C4.34 4 3.68 4 3 4 C2.9071875 5.36125 2.9071875 5.36125 2.8125 6.75 C1.79377526 10.82489894 0.53527509 11.83062665 -3 14 C-6.3826591 15.04701353 -7.59447761 15.13517413 -11 14 C-11.33 15.98 -11.66 17.96 -12 20 C-12.66 20 -13.32 20 -14 20 C-14.33 20.99 -14.66 21.98 -15 23 C-15.66 23 -16.32 23 -17 23 C-16.59754037 17.16433541 -15.87546456 13.62902712 -12 9 C-8.29277083 6.07324013 -5.67259219 5.6740052 -1 6 C-1.020625 5.195625 -1.04125 4.39125 -1.0625 3.5625 C-1 1 -1 1 0 0 Z " fill="#1E1E28" transform="translate(46,21)"/>
<path d="M0 0 C3.875 1.75 3.875 1.75 5 4 C4.34 4 3.68 4 3 4 C2.9175 4.94875 2.835 5.8975 2.75 6.875 C2 10 2 10 -0.0625 11.375 C-0.701875 11.58125 -1.34125 11.7875 -2 12 C-2 9 -2 9 -1 7 C-2.98 7 -4.96 7 -7 7 C-7 6.67 -7 6.34 -7 6 C-5.02 6 -3.04 6 -1 6 C-1.020625 5.195625 -1.04125 4.39125 -1.0625 3.5625 C-1 1 -1 1 0 0 Z " fill="#35363E" transform="translate(46,21)"/>
<path d="M0 0 C-0.8125 3.4375 -0.8125 3.4375 -2 7 C-2.99 7.33 -3.98 7.66 -5 8 C-6.5 6.6875 -6.5 6.6875 -8 5 C-8 4.01 -8 3.02 -8 2 C-4.91190305 0.23537317 -3.76687864 0 0 0 Z " fill="#E6E6E9" transform="translate(40,39)"/>
<path d="M0 0 C0.66 0 1.32 0 2 0 C1.67 1.65 1.34 3.3 1 5 C0.34 5 -0.32 5 -1 5 C-1.33 5.99 -1.66 6.98 -2 8 C-2.66 8 -3.32 8 -4 8 C-4 6.35 -4 4.7 -4 3 C-2.68 2.67 -1.36 2.34 0 2 C0 1.34 0 0.68 0 0 Z " fill="#2D2C34" transform="translate(33,36)"/>
<path d="M0 0 C2.31 0 4.62 0 7 0 C6.67 0.99 6.34 1.98 6 3 C4.35 3.33 2.7 3.66 1 4 C0.67 2.68 0.34 1.36 0 0 Z " fill="#161721" transform="translate(38,28)"/>
<path d="M0 0 C1.32 0.66 2.64 1.32 4 2 C3.34 2 2.68 2 2 2 C1.67 2.66 1.34 3.32 1 4 C-1.0625 4.625 -1.0625 4.625 -3 5 C-1.125 1.125 -1.125 1.125 0 0 Z " fill="#E7E7EC" transform="translate(57,35)"/>
<path d="" fill="#FFFFFF" transform="translate(0,0)"/>
<path d="" fill="#FFFFFF" transform="translate(0,0)"/>
<path d="" fill="#FFFFFF" transform="translate(0,0)"/>
<path d="" fill="#FFFFFF" transform="translate(0,0)"/>
<path d="" fill="#FFFFFF" transform="translate(0,0)"/>
<path d="" fill="#FFFFFF" transform="translate(0,0)"/>
<path d="" fill="#FFFFFF" transform="translate(0,0)"/>
<path d="" fill="#FFFFFF" transform="translate(0,0)"/>
<path d="" fill="#FFFFFF" transform="translate(0,0)"/>
<path d="" fill="#FFFFFF" transform="translate(0,0)"/>
<path d="" fill="#FFFFFF" transform="translate(0,0)"/>
<path d="" fill="#FFFEFF" transform="translate(0,0)"/>
<path d="" fill="#FFFFFF" transform="translate(0,0)"/>
<path d="" fill="#FFFFFF" transform="translate(0,0)"/>
<path d="" fill="#FFFFFF" transform="translate(0,0)"/>
<path d="" fill="#FFFFFF" transform="translate(0,0)"/>
<path d="" fill="#FFFFFF" transform="translate(0,0)"/>
<path d="" fill="#FFFFFF" transform="translate(0,0)"/>
<path d="" fill="#FFFFFF" transform="translate(0,0)"/>
<path d="" fill="#FFFFFF" transform="translate(0,0)"/>
<path d="" fill="#FFFFFF" transform="translate(0,0)"/>
<path d="" fill="#FFFFFF" transform="translate(0,0)"/>
<path d="" fill="#FFFFFF" transform="translate(0,0)"/>
<path d="" fill="#FFFFFF" transform="translate(0,0)"/>
<path d="" fill="#FF00FF" transform="translate(0,0)"/>
<path d="" fill="#FEFFFF" transform="translate(0,0)"/>
<path d="" fill="#FFFFFF" transform="translate(0,0)"/>
<path d="" fill="#FFFF00" transform="translate(0,0)"/>
<path d="" fill="#FFFFFF" transform="translate(0,0)"/>
<path d="" fill="#FFFFFF" transform="translate(0,0)"/>
<path d="" fill="#FFFFFF" transform="translate(0,0)"/>
<path d="" fill="#FFFFFF" transform="translate(0,0)"/>
<path d="" fill="#FFFFFF" transform="translate(0,0)"/>
<path d="" fill="#FFFFFF" transform="translate(0,0)"/>
<path d="" fill="#FFFFFF" transform="translate(0,0)"/>
<path d="" fill="#FFFFFF" transform="translate(0,0)"/>
<path d="" fill="#FFFFFF" transform="translate(0,0)"/>
<path d="" fill="#FFFFFF" transform="translate(0,0)"/>
<path d="" fill="#FFFFFF" transform="translate(0,0)"/>
</svg>
